{
  "accessors": [
    {
      "bufferView": 2,
      "componentType": 5126,
      "count": 43008,
      "max": [
        36.44395065307617,
        36.44395065307617,
        6.440619945526123
      ],
      "min": [
        -36.44395065307617,
        -36.44395065307617,
        -6.440619945526123
      ],
      "type": "VEC3"
    },
    {
      "bufferView": 2,
      "byteOffset": 516096,
      "componentType": 5126,
      "count": 43008,
      "max": [
        0.9990490674972534,
        0.9990490674972534,
        1.0
      ],
      "min": [
        -0.9990490674972534,
        -0.9990490674972534,
        -1.0
      ],
      "type": "VEC3"
    },
    {
      "bufferView": 1,
      "componentType": 5126,
      "count": 43008,
      "max": [
        0.9628000259399414,
        3.0648000240325928
      ],
      "min": [
        0.035920001566410065,
        -2.0776100158691406
      ],
      "type": "VEC2"
    },
    {
      "bufferView": 0,
      "componentType": 5125,
      "count": 64800,
      "type": "SCALAR"
    },
    {
      "bufferView": 2,
      "byteOffset": 1032192,
      "componentType": 5126,
      "count": 1977,
      "max": [
        34.65782928466797,
        34.75730895996094,
        5.161620140075684
      ],
      "min": [
        -34.45792007446289,
        -34.941871643066406,
        -5.101170063018799
      ],
      "type": "VEC3"
    },
    {
      "bufferView": 2,
      "byteOffset": 1055916,
      "componentType": 5126,
      "count": 1977,
      "max": [
        0.9981456995010376,
        0.9986559152603149,
        0.999732494354248
      ],
      "min": [
        -0.9981330633163452,
        -0.9956533908843994,
        -0.9999164342880249
      ],
      "type": "VEC3"
    },
    {
      "bufferView": 0,
      "byteOffset": 259200,
      "componentType": 5125,
      "count": 3918,
      "type": "SCALAR"
    },
    {
      "bufferView": 2,
      "byteOffset": 1079640,
      "componentType": 5126,
      "count": 10800,
      "max": [
        37.942710876464844,
        37.96271896362305,
        7.960010051727295
      ],
      "min": [
        -37.89033889770508,
        -37.94171905517578,
        -7.9541401863098145
      ],
      "type": "VEC3"
    },
    {
      "bufferView": 2,
      "byteOffset": 1209240,
      "componentType": 5126,
      "count": 10800,
      "max": [
        0.9992709755897522,
        0.9999991059303284,
        0.9999822974205017
      ],
      "min": [
        -0.9999997019767761,
        -0.9992597699165344,
        -0.9999326467514038
      ],
      "type": "VEC3"
    },
    {
      "bufferView": 0,
      "byteOffset": 274872,
      "componentType": 5125,
      "count": 64800,
      "type": "SCALAR"
    },
    {
      "bufferView": 3,
      "componentType": 5126,
      "count": 251,
      "max": [
        20.833330154418945
      ],
      "min": [
        0.041669998317956924
      ],
      "type": "SCALAR"
    },
    {
      "bufferView": 5,
      "componentType": 5126,
      "count": 251,
      "max": [
        0.0,
        1.0,
        0.0,
        1.0
      ],
      "min": [
        0.0,
        -0.9997876286506653,
        0.0,
        -0.0
      ],
      "type": "VEC4"
    },
    {
      "bufferView": 3,
      "byteOffset": 1004,
      "componentType": 5126,
      "count": 500,
      "max": [
        20.833330154418945
      ],
      "min": [
        0.041669998317956924
      ],
      "type": "SCALAR"
    },
    {
      "bufferView": 5,
      "byteOffset": 4016,
      "componentType": 5126,
      "count": 500,
      "max": [
        0.00044000043999403715,
        0.00044000218622386456,
        0.9999210238456726,
        1.0
      ],
      "min": [
        -0.00044000157504342496,
        4.999983138986863e-05,
        -0.9999209046363831,
        0.012560012750327587
      ],
      "type": "VEC4"
    },
    {
      "bufferView": 3,
      "byteOffset": 3004,
      "componentType": 5126,
      "count": 500,
      "max": [
        20.833330154418945
      ],
      "min": [
        0.041669998317956924
      ],
      "type": "SCALAR"
    },
    {
      "bufferView": 5,
      "byteOffset": 12016,
      "componentType": 5126,
      "count": 500,
      "max": [
        0.0,
        -0.0,
        1.0,
        1.0
      ],
      "min": [
        0.0,
        -0.0,
        -0.9999210238456726,
        -0.0
      ],
      "type": "VEC4"
    },
    {
      "bufferView": 3,
      "byteOffset": 5004,
      "componentType": 5126,
      "count": 2,
      "max": [
        20.833330154418945
      ],
      "min": [
        0.041669998317956924
      ],
      "type": "SCALAR"
    },
    {
      "bufferView": 4,
      "componentType": 5126,
      "count": 2,
      "max": [
        -30.000179290771484,
        -0.0008099999977275729,
        -0.002940000034868717
      ],
      "min": [
        -30.00019073486328,
        -0.0008099999977275729,
        -0.002940000034868717
      ],
      "type": "VEC3"
    },
    {
      "bufferView": 3,
      "byteOffset": 5012,
      "componentType": 5126,
      "count": 500,
      "max": [
        20.833330154418945
      ],
      "min": [
        0.041669998317956924
      ],
      "type": "SCALAR"
    },
    {
      "bufferView": 5,
      "byteOffset": 20016,
      "componentType": 5126,
      "count": 500,
      "max": [
        0.0,
        -0.0,
        1.0,
        1.0
      ],
      "min": [
        0.0,
        -0.0,
        -0.9999211430549622,
        -0.0062800017185509205
      ],
      "type": "VEC4"
    }
  ],
  "animations": [
    {
      "channels": [
        {
          "sampler": 0,
          "target": {
            "node": 2,
            "path": "rotation"
          }
        },
        {
          "sampler": 1,
          "target": {
            "node": 3,
            "path": "rotation"
          }
        },
        {
          "sampler": 2,
          "target": {
            "node": 5,
            "path": "rotation"
          }
        },
        {
          "sampler": 3,
          "target": {
            "node": 7,
            "path": "translation"
          }
        },
        {
          "sampler": 4,
          "target": {
            "node": 7,
            "path": "rotation"
          }
        }
      ],
      "name": "Take 01",
      "samplers": [
        {
          "input": 10,
          "interpolation": "LINEAR",
          "output": 11
        },
        {
          "input": 12,
          "interpolation": "LINEAR",
          "output": 13
        },
        {
          "input": 14,
          "interpolation": "LINEAR",
          "output": 15
        },
        {
          "input": 16,
          "interpolation": "LINEAR",
          "output": 17
        },
        {
          "input": 18,
          "interpolation": "LINEAR",
          "output": 19
        }
      ]
    }
  ],
  "asset": {
    "extras": {
      "author": "tamminen (https://sketchfab.com/tamminen)",
      "license": "CC-BY-4.0 (http://creativecommons.org/licenses/by/4.0/)",
      "source": "https://sketchfab.com/3d-models/spacedrive-7b88110e3d2a4bb880824dba9aa81390",
      "title": "SpaceDrive"
    },
    "generator": "Sketchfab-16.12.0",
    "version": "2.0"
  },
  "bufferViews": [
    {
      "buffer": 0,
      "byteLength": 534072,
      "name": "floatBufferViews",
      "target": 34963
    },
    {
      "buffer": 0,
      "byteLength": 344064,
      "byteOffset": 534072,
      "byteStride": 8,
      "name": "floatBufferViews",
      "target": 34962
    },
    {
      "buffer": 0,
      "byteLength": 1338840,
      "byteOffset": 878136,
      "byteStride": 12,
      "name": "floatBufferViews",
      "target": 34962
    },
    {
      "buffer": 0,
      "byteLength": 7012,
      "byteOffset": 2216976,
      "name": "floatBufferViews"
    },
    {
      "buffer": 0,
      "byteLength": 24,
      "byteOffset": 2223988,
      "byteStride": 12,
      "name": "floatBufferViews"
    },
    {
      "buffer": 0,
      "byteLength": 28016,
      "byteOffset": 2224012,
      "byteStride": 16,
      "name": "floatBufferViews"
    }
  ],
  "buffers": [
    {
      "byteLength": 2252028,
      "uri": "scene.bin"
    }
  ],
  "extensionsUsed": [
    "KHR_materials_clearcoat",
    "KHR_materials_transmission",
    "KHR_materials_specular",
    "KHR_materials_emissive_strength"
  ],
  "images": [
    {
      "uri": "textures/cloud_baseColor.png"
    }
  ],
  "materials": [
    {
      "doubleSided": true,
      "extensions": {
        "KHR_materials_clearcoat": {
          "clearcoatFactor": 1.0,
          "clearcoatRoughnessFactor": 0.04
        },
        "KHR_materials_specular": {
          "specularColorFactor": [
            1.0,
            1.0,
            1.0
          ],
          "specularFactor": 0.7603832697
        },
        "KHR_materials_transmission": {
          "transmissionFactor": 0.0
        }
      },
      "name": "Tunnel_0",
      "pbrMetallicRoughness": {
        "baseColorFactor": [
          0.0,
          0.0,
          0.0,
          1.0
        ],
        "metallicFactor": 0.8573262858197537,
        "roughnessFactor": 0.043043523092028003
      }
    },
    {
      "alphaMode": "BLEND",
      "doubleSided": true,
      "emissiveFactor": [
        0.5588885724329825,
        0.5122415946564828,
        1.0
      ],
      "extensions": {
        "KHR_materials_emissive_strength": {
          "emissiveStrength": 7.177164730406797
        },
        "KHR_materials_specular": {
          "specularColorFactor": [
            1.0,
            1.0,
            1.0
          ],
          "specularFactor": 1.0
        }
      },
      "name": "cloud",
      "pbrMetallicRoughness": {
        "baseColorFactor": [
          0.12204110455068795,
          0.12204110455068795,
          0.12204110455068795,
          0.09165741937428028
        ],
        "baseColorTexture": {
          "index": 0
        },
        "roughnessFactor": 0.0
      }
    },
    {
      "doubleSided": true,
      "emissiveFactor": [
        0.1446699817445606,
        0.21588816228160695,
        1.0
      ],
      "extensions": {
        "KHR_materials_emissive_strength": {
          "emissiveStrength": 1.7673173786822178
        },
        "KHR_materials_specular": {
          "specularColorFactor": [
            1.0,
            1.0,
            1.0
          ],
          "specularFactor": 1.0
        }
      },
      "name": "scrap",
      "pbrMetallicRoughness": {
        "baseColorFactor": [
          0.8000000119,
          0.8000000119,
          0.8000000119,
          1.0
        ]
      }
    }
  ],
  "meshes": [
    {
      "name": "Torus.002_0",
      "primitives": [
        {
          "attributes": {
            "NORMAL": 1,
            "POSITION": 0,
            "TEXCOORD_0": 2
          },
          "indices": 3,
          "material": 1,
          "mode": 4
        }
      ]
    },
    {
      "name": "Tunnel.001_0",
      "primitives": [
        {
          "attributes": {
            "NORMAL": 5,
            "POSITION": 4
          },
          "indices": 6,
          "material": 2,
          "mode": 4
        }
      ]
    },
    {
      "name": "Tunnel_0",
      "primitives": [
        {
          "attributes": {
            "NORMAL": 8,
            "POSITION": 7
          },
          "indices": 9,
          "material": 0,
          "mode": 4
        }
      ]
    }
  ],
  "nodes": [
    {
      "children": [
        1
      ],
      "matrix": [
        1.0,
        0.0,
        0.0,
        0.0,
        0.0,
        2.220446049250313e-16,
        -1.0,
        0.0,
        0.0,
        1.0,
        2.220446049250313e-16,
        0.0,
        0.0,
        0.0,
        0.0,
        1.0
      ],
      "name": "Sketchfab_model"
    },
    {
      "children": [
        2
      ],
      "name": "Root"
    },
    {
      "children": [
        3,
        5,
        7
      ],
      "name": "Root"
    },
    {
      "children": [
        4
      ],
      "name": "Torus.002",
      "rotation": [
        0.0,
        0.0004399999452289194,
        0.0,
        0.9999998807907104
      ],
      "translation": [
        -29.999990463256836,
        0.0,
        0.026419999077916145
      ]
    },
    {
      "mesh": 0,
      "name": "Torus.002_0"
    },
    {
      "children": [
        6
      ],
      "name": "Tunnel.001",
      "translation": [
        -30.0,
        0.0,
        0.0
      ]
    },
    {
      "mesh": 1,
      "name": "Tunnel.001_0"
    },
    {
      "children": [
        8
      ],
      "name": "Tunnel",
      "translation": [
        -30.00019073486328,
        -0.0008099999977275729,
        -0.002940000034868717
      ]
    },
    {
      "mesh": 2,
      "name": "Tunnel_0"
    }
  ],
  "samplers": [
    {
      "magFilter": 9729,
      "minFilter": 9987,
      "wrapS": 10497,
      "wrapT": 10497
    }
  ],
  "scene": 0,
  "scenes": [
    {
      "name": "Sketchfab_Scene",
      "nodes": [
        0
      ]
    }
  ],
  "textures": [
    {
      "sampler": 0,
      "source": 0
    }
  ]
}
